<?xml version="1.0" encoding="iso-8859-1"?>
<!-- Generator: Adobe Illustrator 19.0.0, SVG Export Plug-In . SVG Version: 6.00 Build 0)  -->
<svg version="1.1" id="Layer_1" xmlns="http://www.w3.org/2000/svg" xmlns:xlink="http://www.w3.org/1999/xlink" x="0px" y="0px"
	 viewBox="0 0 508.034 508.034" style="enable-background:new 0 0 508.034 508.034;" xml:space="preserve">
<g>
	<g>
		<path d="M331.9,406.367c-7.8,0-14.1,6.3-14.1,14.1v6.7c0,7.8,6.3,14.1,14.1,14.1c7.8,0,14.1-6.3,14.1-14.1v-6.7
			C346,412.767,339.7,406.367,331.9,406.367z"/>
	</g>
</g>
<g>
	<g>
		<path d="M331.9,293.567c-7.8,0-14.1,6.3-14.1,14.1v64.6c0,7.8,6.3,14.1,14.1,14.1c7.8,0,14.1-6.3,14.1-14.1v-64.6
			C346,299.867,339.7,293.567,331.9,293.567z"/>
	</g>
</g>
<g>
	<g>
		<path d="M500.2,427.967l-94.3-153.8c9.4-9.9,14.8-23,14.8-37.2v-51.4c0-16.2-7.2-30.8-18.6-40.7c11.4-10.3,18.6-25.1,18.6-41.6
			v-46.8c0-31.1-25.3-56.4-56.4-56.4H56.4c-31.1,0-56.4,25.3-56.4,56.4v46.7c0,16.5,7.2,31.3,18.5,41.7
			c-11.3,9.9-18.5,24.5-18.5,40.6v51.4c0,15.9,6.9,30,17.8,39.9c-10.9,10-17.8,24.3-17.8,40.1v51.4c0,29.8,24.3,54.1,54.1,54.1H167
			l-3.4,5.5c-21.5,35.1,3.7,80.1,44.9,80.1h246.8C496.4,508.067,521.7,462.967,500.2,427.967z M28.2,56.467
			c0-15.6,12.7-28.2,28.2-28.2h307.8c15.6,0,28.2,12.7,28.2,28.2v46.7c0,15.4-12.5,28-27.9,28.2H56.1c-15.4-0.2-27.9-12.7-27.9-28.2
			V56.467z M28.2,185.367c0-14.3,11.6-25.9,25.9-25.9h312.5c14.2,0.2,25.8,11.8,25.8,26v51.4c0,4-0.9,7.8-2.6,11.2l-13.1-21.4
			c-20.5-33.5-69.2-33.5-89.7,0l-22.1,36H54.1c-14.3,0-25.9-11.6-25.9-25.9V185.367z M54.1,394.267c-14.3,0-25.9-11.6-25.9-25.9
			v-51.4c0-14.3,11.6-25.9,25.9-25.9h193.5l-63.3,103.2H54.1z M455.3,479.867H208.5c-19.1,0-30.7-20.9-20.8-37.1l123.4-201.2
			c9.5-15.5,32.1-15.5,41.6,0l123.4,201.2C486.1,458.967,474.4,479.867,455.3,479.867z"/>
	</g>
</g>
<g>
	<g>
		<path d="M146.6,65.767H140c-7.8,0-14.1,6.3-14.1,14.1s6.3,14.1,14.1,14.1h6.6c7.8,0,14.1-6.3,14.1-14.1S154.4,65.767,146.6,65.767
			z"/>
	</g>
</g>
<g>
	<g>
		<path d="M74,65.767h-6.6c-7.8,0-14.1,6.3-14.1,14.1s6.3,14.1,14.1,14.1H74c7.8,0,14.1-6.3,14.1-14.1S81.8,65.767,74,65.767z"/>
	</g>
</g>
<g>
	<g>
		<path d="M219.3,65.767h-6.6c-7.8,0-14.1,6.3-14.1,14.1s6.3,14.1,14.1,14.1h6.6c7.8,0,14.1-6.3,14.1-14.1
			S227.1,65.767,219.3,65.767z"/>
	</g>
</g>
<g>
	<g>
		<path d="M146.6,197.167H140c-7.8,0-14.1,6.3-14.1,14.1s6.3,14.1,14.1,14.1h6.6c7.8,0,14.1-6.3,14.1-14.1
			S154.4,197.167,146.6,197.167z"/>
	</g>
</g>
<g>
	<g>
		<path d="M74,197.167h-6.6c-7.8,0-14.1,6.3-14.1,14.1s6.3,14.1,14.1,14.1H74c7.8,0,14.1-6.3,14.1-14.1S81.8,197.167,74,197.167z"/>
	</g>
</g>
<g>
	<g>
		<path d="M219.3,197.167h-6.6c-7.8,0-14.1,6.3-14.1,14.1s6.3,14.1,14.1,14.1h6.6c7.8,0,14.1-6.3,14.1-14.1
			S227.1,197.167,219.3,197.167z"/>
	</g>
</g>
<g>
	<g>
		<path d="M146.6,328.467H140c-7.8,0-14.1,6.3-14.1,14.1c0,7.8,6.3,14.1,14.1,14.1h6.6c7.8,0,14.1-6.3,14.1-14.1
			C160.8,334.867,154.4,328.467,146.6,328.467z"/>
	</g>
</g>
<g>
	<g>
		<path d="M74,328.467h-6.6c-7.8,0-14.1,6.3-14.1,14.1c0,7.8,6.3,14.1,14.1,14.1H74c7.8,0,14.1-6.3,14.1-14.1
			C88.1,334.867,81.8,328.467,74,328.467z"/>
	</g>
</g>
<g>
</g>
<g>
</g>
<g>
</g>
<g>
</g>
<g>
</g>
<g>
</g>
<g>
</g>
<g>
</g>
<g>
</g>
<g>
</g>
<g>
</g>
<g>
</g>
<g>
</g>
<g>
</g>
<g>
</g>
</svg>
