<?xml version="1.0" encoding="utf-8"?>
<!-- Generator: Adobe Illustrator 23.0.3, SVG Export Plug-In . SVG Version: 6.00 Build 0)  -->
<svg version="1.1" id="Layer_1" xmlns="http://www.w3.org/2000/svg" xmlns:xlink="http://www.w3.org/1999/xlink" x="0px" y="0px"
	 viewBox="0 0 50 40" style="enable-background:new 0 0 50 40;" xml:space="preserve">
<style type="text/css">
	.st0{stroke:#000000;stroke-width:0.5;stroke-miterlimit:10;}
</style>
<g id="Database-3_1_">
	<g>
		<path class="st0" d="M33,6.3L33,6.3c-2.7-0.4-5.4-0.6-8-0.6c-2.7,0-5.4,0.2-8,0.6c-2.7,0.5-3.9,1.1-3.9,2v22.4
			c0,2.4,6.2,3.5,11.9,3.5s11.9-1.1,11.9-3.5V8.3C36.9,7.4,35.8,6.8,33,6.3z M35.5,30.7c0,0.6-3.7,2.1-10.5,2.1s-10.5-1.5-10.5-2.1
			v-5.7c2.3,1.3,6.8,1.7,10.5,1.7s8.2-0.5,10.5-1.7V30.7z M35.5,23.3c0,0.6-3.7,2.1-10.5,2.1s-10.5-1.5-10.5-2.1V18
			c2.3,1.1,6.9,1.3,10.5,1.3s8.2-0.2,10.5-1.3V23.3z M35.5,16.3c0,0.3-2.5,1.6-10.5,1.6s-10.5-1.3-10.5-1.6v-5.7
			c2.3,1.1,6.9,1.3,10.5,1.3s8.2-0.2,10.5-1.3V16.3z M35.5,8.8c0,0.4-2.5,1.6-10.5,1.6S14.5,9.2,14.5,8.8V8.5
			C15,8.1,18.1,7.2,25,7.2s10,0.9,10.5,1.3V8.8z"/>
	</g>
</g>
</svg>
